#!OML:ASF F:\VICON\USERDATA\INSTALL\rory3\rory3.ASF
:FULLY-SPECIFIED
:DEGREES
70
root 0.4958101051414784 17.963779168869017 37.72947594227214 -3.5119571472132005 -1.4745396926299015 -5.514767704842771
lfemur -15.913620272513043 0.872179927674479 -13.609314226120006
ltibia 68.10746489769608
lfoot -2.628867881859045 -5.160559112908667
ltoes -8.468886841639847
rfemur -12.03796203464871 2.440754205817412 33.06819638855429
rtibia 29.022678732854743
rfoot -12.670589536389677 -6.528536409059316
rtoes 7.787646472636283
lowerback 11.235412161932985 0.11045447179929822 3.044566379691804
upperback 0.12523423955014817 0.7326151715986496 2.537816844687942
thorax -6.144718903445281 0.33259489892700167 1.0809474609530332
lowerneck -15.831925159310142 -3.083528599102895 -3.28666501370762
upperneck 22.108563352537438 -3.8335784594131517 1.5122111745798434
head 9.675394344962589 -1.8458547723539482 0.6055269878516645
lclavicle -2.0269215800634894e-15 -7.120537747709792e-16
lhumerus -32.0661670816264 2.934981038202885 81.97964166058006
lradius 27.253626572742913
lwrist 8.861373161509
lhand -29.465162484906738 18.546256504671643
lfingers 7.12502
lthumb -2.5564000301738687 48.636387384301564
rclavicle -2.027883971229253e-15 -7.126444409445592e-16
rhumerus -29.779007711028893 -19.683277786649487 -76.44205720092377
rradius 24.16752821094964
rwrist 5.468791836532693
rhand -17.35661556534136 21.91704573685336
rfingers 7.12502
rthumb 8.626795022990045 -8.101551179031844
71
root 0.5096461494095221 17.88723294366479 38.69616628457132 -3.1547038993469068 -2.2095748985118404 -5.909408280356959
lfemur -20.40719251188115 1.3064050660371653 -13.159112935181259
ltibia 65.21134681702011
lfoot -5.4769222967347 -2.036495890837148
ltoes -9.530564955631991
rfemur -9.96676250409039 2.338829647638905 33.76707596313256
rtibia 29.67121675820732
rfoot -14.6369007796824 -6.547652396795805
rtoes 8.1205212933822
lowerback 11.459541898273997 0.5034429946852316 3.873945339764986
upperback 0.05532798573025857 1.3953806666538606 2.395402838083919
thorax -6.295251562755198 0.6263312176027831 0.09605554347063783
lowerneck -15.762824879453756 -3.1151720086083095 -3.267132028142567
upperneck 21.99317007074366 -3.892020433176155 1.5721140468738826
head 9.638105616406364 -1.858041843023861 0.6246940131870821
lclavicle -2.0267501466486992e-15 -7.119374599509558e-16
lhumerus -33.21679979095199 3.6818162745466445 81.815737387416
lradius 27.14233330197487
lwrist 9.817675121701786
lhand -30.11572546306818 17.433416175552587
lfingers 7.12502
lthumb -3.274461921849658 47.662848153343795
rclavicle -2.0290470575305927e-15 -7.133871297068579e-16
rhumerus -28.304917130946656 -17.42138678124912 -77.72005786577033
rradius 26.464495802269713
rwrist 3.3389919044489362
rhand -17.55138106801031 21.710952794929156
rfingers 7.12502
rthumb 8.289099903226072 -8.227383537618367
72
root 0.5198173529982615 17.824675046933425 39.58933190472266 -2.5268077244825355 -2.940170234711064 -6.5887196583863865
lfemur -23.780826735521778 1.1642200786544366 -12.3097531221079
ltibia 58.58102169689097
lfoot -6.136256983356153 0.9610343851135217
ltoes -8.08796627619576
rfemur -7.658302891755142 2.5461791838062133 34.50821976653157
rtibia 29.077051800851343
rfoot -16.150926577702872 -6.83033530639995
rtoes 7.767906163731352
lowerback 11.540186748834124 0.8569819822892654 4.807483237703783
upperback 0.006592950835287423 2.0478047263533226 2.37986309203092
thorax -6.306590941334414 0.9084615352886174 -0.7980420573583429
lowerneck -15.810603011825087 -3.1327682324333597 -3.176522008724579
upperneck 21.850184169910687 -3.921491225992846 1.557554884656578
head 9.604348111056972 -1.8647917866868657 0.6111764049316848
lclavicle -2.0262996087812622e-15 -7.116504949468682e-16
lhumerus -34.06491684990968 4.455079242883912 81.65950967385054
lradius 26.73095077754433
lwrist 9.8828212799919
lhand -30.597699349951018 16.78457438030588
lfingers 7.12502
lthumb -3.8121311129987268 47.03397354907079
rclavicle -2.0280189771356377e-15 -7.127306568430788e-16
rhumerus -26.785956393772423 -15.723726671153702 -78.63136460416425
rradius 28.388773063517966
rwrist 1.784580613614562
rhand -17.85223096346714 21.922123180699636
rfingers 7.12502
rthumb 7.919672937438579 -7.678640393739145
73
root 0.545454280905783 17.790477452902635 40.62111882118801 -1.6517183527536021 -3.5960382154430643 -6.667834155521517
lfemur -25.73528688067487 -0.2119320887147942 -11.563238525141255
ltibia 48.030408874234176
lfoot -5.232229564100814 3.0222359087702033
ltoes -7.279492987681676
rfemur -5.233206874808243 2.7830646855896237 34.569289366499774
rtibia 27.276618381867294
rfoot -16.989471634246357 -7.123289434535621
rtoes 5.79552769406419
lowerback 11.166626549002853 1.248630258426991 5.209452589991068
upperback -0.08353186292176293 2.603193540079032 2.3147206940290346
thorax -6.123560313571594 1.1674748724344173 -1.5041380555625576
lowerneck -15.951326124812471 -3.1363870621429895 -3.0735146998404805
upperneck 21.77832499249229 -3.9469262929980857 1.6116653607181832
head 9.599944256680061 -1.8693539729160693 0.6173042656737872
lclavicle -2.0274469084843454e-15 -7.123831823915278e-16
lhumerus -34.764443287566785 5.627051385013953 81.35772570461948
lradius 25.79102166821214
lwrist 8.781972852597118
lhand -30.655759272745673 16.977373701280236
lfingers 7.12502
lthumb -3.881150218465213 47.06651536594709
rclavicle -2.0294251544444092e-15 -7.136285333232138e-16
rhumerus -25.457573394636718 -14.84322386551421 -79.09391324987226
rradius 29.847413573016595
rwrist 0.7725233296981551
rhand -18.17212626538852 22.346014365251055
rfingers 7.12502
rthumb 7.667847398305429 -7.04881398338923
